HIERARCHY
ROOT Hips
{
	OFFSET -0.001795 -0.223333 0.028219
	CHANNELS 6 Xposition Yposition Zposition Zrotation Yrotation Xrotation 
	JOINT LeftUpLeg
	{
		OFFSET 0.069520 -0.091406 -0.006815
		CHANNELS 3 Zrotation Yrotation Xrotation
		JOINT LeftLeg
		{
			OFFSET 0.034277 -0.375199 -0.004496
			CHANNELS 3 Zrotation Yrotation Xrotation
			JOINT LeftFoot
			{
				OFFSET -0.013596 -0.397961 -0.043693
				CHANNELS 3 Zrotation Yrotation Xrotation
				JOINT LeftToe
				{
					OFFSET 0.026358 -0.055791 0.119288
					CHANNELS 3 Zrotation Yrotation Xrotation
					End Site
					{
						OFFSET 0.000000 0.000000 0.000000
					}
				}
			}
		}
	}
	JOINT RightUpLeg
	{
		OFFSET -0.067670 -0.090522 -0.004320
		CHANNELS 3 Zrotation Yrotation Xrotation
		JOINT RightLeg
		{
			OFFSET -0.038290 -0.382569 -0.008850
			CHANNELS 3 Zrotation Yrotation Xrotation
			JOINT RightFoot
			{
				OFFSET 0.015774 -0.398415 -0.042312
				CHANNELS 3 Zrotation Yrotation Xrotation
				JOINT RightToe
				{
					OFFSET -0.025372 -0.048144 0.123348
					CHANNELS 3 Zrotation Yrotation Xrotation
					End Site
					{
						OFFSET 0.000000 0.000000 0.000000
					}
				}
			}
		}
	}
	JOINT Spine
	{
		OFFSET -0.002533 0.108963 -0.026696
		CHANNELS 3 Zrotation Yrotation Xrotation
		JOINT Spine1
		{
			OFFSET 0.005487 0.135180 0.001092
			CHANNELS 3 Zrotation Yrotation Xrotation
			JOINT Spine2
			{
				OFFSET 0.001457 0.052922 0.025425
				CHANNELS 3 Zrotation Yrotation Xrotation
				JOINT Neck
				{
					OFFSET -0.002778 0.213870 -0.042857
					CHANNELS 3 Zrotation Yrotation Xrotation
					JOINT Head
					{
						OFFSET 0.005152 0.064970 0.051349
						CHANNELS 3 Zrotation Yrotation Xrotation
						End Site
						{
							OFFSET 0.000000 0.000000 0.000000
						}
					}
				}
				JOINT LeftShoulder
				{
					OFFSET 0.078845 0.121749 -0.034090
					CHANNELS 3 Zrotation Yrotation Xrotation
					JOINT LeftArm
					{
						OFFSET 0.090977 0.030469 -0.008868
						CHANNELS 3 Zrotation Yrotation Xrotation
						JOINT LeftForeArm
						{
							OFFSET 0.259612 -0.012772 -0.027456
							CHANNELS 3 Zrotation Yrotation Xrotation
							JOINT LeftHand
							{
								OFFSET 0.249234 0.008986 -0.001171
								CHANNELS 3 Zrotation Yrotation Xrotation
								End Site
								{
									OFFSET 0.000000 0.000000 0.000000
								}
							}
						}
					}
				}
				JOINT RightShoulder
				{
					OFFSET -0.081759 0.118833 -0.038615
					CHANNELS 3 Zrotation Yrotation Xrotation
					JOINT RightArm
					{
						OFFSET -0.096012 0.032551 -0.009143
						CHANNELS 3 Zrotation Yrotation Xrotation
						JOINT RightForeArm
						{
							OFFSET -0.253742 -0.013329 -0.021401
							CHANNELS 3 Zrotation Yrotation Xrotation
							JOINT RightHand
							{
								OFFSET -0.255298 0.007772 -0.005559
								CHANNELS 3 Zrotation Yrotation Xrotation
								End Site
								{
									OFFSET 0.000000 0.000000 0.000000
								}
							}
						}
					}
				}
			}
		}
	}
}
MOTION
Frames: 16
Frame Time: 0.050000
0.031336 0.889446 -0.076161 -5.883416 -7.721856 9.603353 15.110539 2.263852 -34.242495 -8.055241 4.743598 45.900113 4.741472 9.115758 -4.111505 0.000000 0.000000 0.000000 -3.466601 3.667303 -36.316320 6.232410 0.109515 44.420384 -2.761201 -6.836336 -1.024772 0.000000 0.000000 0.000000 5.903978 -0.665201 4.901007 -0.226208 0.143276 -6.525516 -2.337763 8.869663 12.018380 10.897164 -6.060557 -12.293232 0.000000 0.000000 0.000000 3.322419 15.523942 -4.469370 -18.689285 -5.456651 -1.677200 -153.635729 -45.984499 126.193731 0.000000 0.000000 0.000000 -2.118552 -23.773882 -8.072408 23.185279 3.849765 -1.914051 153.436208 41.519691 126.382529 0.000000 0.000000 0.000000 
0.031116 0.888313 -0.075968 -6.153864 -7.500580 10.024948 15.377028 2.374780 -34.912667 -8.197204 4.835656 46.375074 4.818284 9.228839 -4.396974 0.000000 0.000000 0.000000 -3.535067 3.714765 -37.005325 6.944254 -0.295088 45.008522 -2.909737 -7.417900 -0.607734 0.000000 0.000000 0.000000 5.689383 -0.684407 5.190996 0.109929 0.015395 -6.681742 -2.168145 9.007237 12.046920 10.976720 -5.969779 -12.824513 0.000000 0.000000 0.000000 2.277262 18.017842 -5.563911 -22.734577 -4.748550 -2.099371 -150.492490 -46.240389 120.343347 0.000000 0.000000 0.000000 -0.448323 -25.506322 -9.157887 26.528857 2.399842 -2.368297 152.467357 41.907736 125.039949 0.000000 0.000000 0.000000 
0.030957 0.887447 -0.076168 -6.305249 -7.498599 10.559962 16.100160 2.677125 -35.587163 -8.818533 5.263008 46.779704 4.789404 9.106752 -4.650526 0.000000 0.000000 0.000000 -3.580548 3.819207 -37.878292 7.572403 -0.620072 45.599753 -3.287690 -8.365861 -0.761368 0.000000 0.000000 0.000000 5.581605 -0.713453 5.515263 0.215986 -0.016645 -7.363763 -2.183915 9.397677 12.127607 11.239675 -5.834848 -14.054014 0.000000 0.000000 0.000000 0.738763 20.161498 -6.760515 -25.946143 -3.659753 -2.563996 -147.576176 -46.720272 115.407736 0.000000 0.000000 0.000000 1.307408 -27.199445 -10.322040 29.444404 0.720520 -2.910136 152.631180 42.456564 126.378424 0.000000 0.000000 0.000000 
0.030990 0.886282 -0.076861 -6.459508 -7.258660 11.091513 16.416529 2.849586 -36.630412 -9.106043 5.507408 47.753036 4.760906 8.974028 -4.927151 0.000000 0.000000 0.000000 -3.749807 3.864609 -38.824073 8.264650 -1.042294 46.362296 -3.566057 -9.193595 -0.542252 0.000000 0.000000 0.000000 5.348665 -0.732832 5.850448 0.447252 -0.092409 -7.871126 -2.282362 9.579411 12.326762 11.366112 -5.405647 -16.193181 0.000000 0.000000 0.000000 -0.054145 21.648674 -7.551184 -28.279764 -2.202145 -3.077977 -146.530314 -46.318891 112.927001 0.000000 0.000000 0.000000 2.243066 -28.453228 -11.122360 31.826733 -0.639173 -3.401423 153.080850 43.033079 128.353178 0.000000 0.000000 0.000000 
0.031169 0.886031 -0.077810 -6.404170 -6.899559 11.278325 16.431277 2.877855 -37.433132 -9.243942 5.584565 48.418316 4.478278 8.418555 -4.464214 0.000000 0.000000 0.000000 -3.816535 3.848802 -39.225774 8.542123 -1.273103 46.720956 -3.736639 -9.571194 -0.732008 0.000000 0.000000 0.000000 5.253835 -0.768063 6.326534 0.472893 -0.083969 -8.498614 -2.461342 9.696580 12.659233 11.361409 -5.216881 -16.917452 0.000000 0.000000 0.000000 -0.553880 22.529381 -8.049842 -28.977634 -1.488515 -3.307972 -146.964982 -46.330261 113.567485 0.000000 0.000000 0.000000 3.335887 -29.009976 -11.711201 32.738519 -1.459329 -3.696669 153.279731 43.159163 129.182553 0.000000 0.000000 0.000000 
0.031332 0.885010 -0.078580 -6.428064 -6.568381 11.610723 16.470645 2.890361 -38.030851 -9.494968 5.693462 48.656520 4.348752 8.001879 -4.938825 0.000000 0.000000 0.000000 -3.917143 3.860391 -39.922045 8.886998 -1.546041 47.455555 -3.823940 -9.849148 -0.606736 0.000000 0.000000 0.000000 5.037730 -0.776746 6.596768 0.518921 -0.082373 -9.085384 -2.659015 9.847532 12.855658 11.603079 -5.332385 -16.926265 0.000000 0.000000 0.000000 -0.112363 23.020725 -8.074671 -29.353124 -0.966507 -3.470137 -147.601736 -45.159669 112.983396 0.000000 0.000000 0.000000 3.023909 -29.416657 -11.806939 33.265812 -2.205251 -3.906194 152.627438 42.907286 127.859206 0.000000 0.000000 0.000000 
0.031406 0.884431 -0.079015 -6.500432 -6.283891 11.872418 16.783424 2.980438 -38.387651 -10.036194 5.958488 48.616548 4.488126 8.328280 -4.931794 0.000000 0.000000 0.000000 -3.965796 3.842263 -40.207203 9.086082 -1.724128 47.514468 -4.132563 -10.640806 -0.644812 0.000000 0.000000 0.000000 4.874034 -0.770446 6.644990 0.658226 -0.125259 -9.197126 -2.856435 9.845880 12.677934 11.520690 -5.195330 -17.170313 0.000000 0.000000 0.000000 -0.050179 23.822707 -8.329759 -28.862746 -0.683975 -3.453029 -147.676375 -44.657523 112.308678 0.000000 0.000000 0.000000 2.643484 -29.807663 -11.857060 33.534853 -2.652757 -4.003490 151.631957 43.210704 126.374892 0.000000 0.000000 0.000000 
0.031437 0.883753 -0.079119 -6.508768 -6.257798 12.380886 16.790389 3.016193 -38.784857 -10.424421 6.196233 48.553314 4.559064 8.380981 -5.420498 0.000000 0.000000 0.000000 -4.005662 3.879202 -40.606081 9.279987 -1.842369 47.709070 -4.313167 -11.030709 -0.969254 0.000000 0.000000 0.000000 4.880915 -0.773479 6.564955 0.455776 -0.034907 -9.913650 -2.897229 10.026221 12.891915 11.771559 -5.207035 -17.753900 0.000000 0.000000 0.000000 0.608759 24.720805 -8.414448 -29.056932 -0.372502 -3.555194 -146.948544 -43.863947 109.760597 0.000000 0.000000 0.000000 1.957201 -30.604023 -11.983879 33.994232 -3.283349 -4.172148 150.512163 42.728508 123.624731 0.000000 0.000000 0.000000 
0.031626 0.883484 -0.079052 -6.650256 -6.335819 12.569893 16.961590 3.109551 -38.934703 -10.699252 6.366824 48.384858 4.648569 8.575490 -5.502479 0.000000 0.000000 0.000000 -3.932667 3.942034 -40.821203 9.541707 -1.972671 48.032168 -4.508488 -11.604643 -0.771072 0.000000 0.000000 0.000000 4.876070 -0.763348 6.409169 0.424456 -0.021836 -10.069979 -2.871483 10.104732 12.658024 11.454512 -5.070403 -17.413937 0.000000 0.000000 0.000000 0.626467 25.284189 -8.596148 -28.949512 -0.385626 -3.527867 -146.163450 -43.590640 107.913004 0.000000 0.000000 0.000000 1.444492 -31.054333 -11.994731 34.029302 -3.562861 -4.206871 149.314819 42.444112 120.835110 0.000000 0.000000 0.000000 
0.031952 0.882924 -0.079004 -6.648339 -6.402067 12.607152 16.771640 3.077201 -39.125767 -10.291573 6.160504 48.615145 4.479106 8.164297 -5.545392 0.000000 0.000000 0.000000 -4.158094 3.906532 -41.021968 9.902601 -2.171334 48.329197 -4.690690 -12.090517 -0.730131 0.000000 0.000000 0.000000 5.046050 -0.775521 6.343209 0.339802 0.012538 -10.339469 -3.004933 10.192846 12.435916 11.780289 -5.163725 -17.851125 0.000000 0.000000 0.000000 0.979034 25.485096 -8.517590 -29.291495 -0.504774 -3.545523 -145.662683 -43.615702 106.965950 0.000000 0.000000 0.000000 0.547209 -31.521457 -11.883213 34.324400 -3.306887 -4.141682 148.663405 42.215120 119.355228 0.000000 0.000000 0.000000 
0.032217 0.882242 -0.079195 -6.533463 -6.529162 12.532645 16.442472 2.989632 -39.167822 -9.858783 5.938378 48.777468 4.443297 8.018128 -5.790123 0.000000 0.000000 0.000000 -4.247828 3.883340 -40.917530 9.848733 -2.117345 48.539984 -4.781520 -12.275492 -0.905122 0.000000 0.000000 0.000000 5.138231 -0.781195 6.324451 0.323700 0.019451 -10.513114 -3.155726 10.062089 12.205935 11.390123 -4.973939 -17.659712 0.000000 0.000000 0.000000 0.936300 25.612461 -8.572831 -29.701702 -0.829166 -3.524248 -144.762665 -43.969312 105.987206 0.000000 0.000000 0.000000 0.120362 -31.012371 -11.528689 34.023413 -2.496823 -3.918563 148.049257 42.077345 117.874999 0.000000 0.000000 0.000000 
0.032157 0.881583 -0.079681 -6.585039 -6.346113 12.414787 16.208492 2.893673 -39.368089 -9.219615 5.552984 49.277235 4.140189 7.344613 -5.585000 0.000000 0.000000 0.000000 -4.383054 3.814431 -40.925949 10.178591 -2.351555 48.580713 -4.957380 -12.730716 -0.863142 0.000000 0.000000 0.000000 5.284350 -0.802872 6.420708 0.329383 0.022107 -10.577683 -3.126670 10.033369 12.265097 11.623270 -5.006649 -18.158088 0.000000 0.000000 0.000000 0.604328 25.285888 -8.583753 -30.052857 -1.293873 -3.474283 -144.463675 -44.212215 105.766530 0.000000 0.000000 0.000000 0.409172 -30.888285 -11.576782 33.796517 -1.939106 -3.777239 147.675958 41.731319 116.712517 0.000000 0.000000 0.000000 
0.031611 0.881155 -0.080442 -6.602704 -6.525375 12.438369 16.052956 2.861309 -39.242815 -8.862573 5.345665 49.022232 4.289975 7.658794 -5.767509 0.000000 0.000000 0.000000 -4.236995 3.871806 -40.796351 10.088652 -2.248658 48.424965 -4.919981 -12.638329 -0.874177 0.000000 0.000000 0.000000 5.396416 -0.804590 6.316774 0.468051 -0.032504 -10.496360 -3.116793 10.192901 12.251937 11.731169 -4.993367 -18.498689 0.000000 0.000000 0.000000 0.595600 25.106345 -8.521977 -30.520941 -1.899720 -3.406122 -144.061139 -44.899676 105.990449 0.000000 0.000000 0.000000 0.434549 -30.635355 -11.487189 33.982154 -1.378242 -3.671887 147.866829 42.269257 117.958478 0.000000 0.000000 0.000000 
0.030744 0.881062 -0.081305 -6.641327 -6.493839 12.176683 15.978758 2.802492 -38.946057 -8.441189 5.034564 48.692052 4.209099 7.456182 -5.806122 0.000000 0.000000 0.000000 -3.640004 4.003707 -40.429756 9.724260 -2.030170 48.301182 -4.897829 -12.505466 -1.107957 0.000000 0.000000 0.000000 5.547325 -0.820147 6.391042 0.508273 -0.049134 -10.391641 -3.015942 10.317492 12.494785 11.760306 -5.089278 -18.137420 0.000000 0.000000 0.000000 0.879083 24.467488 -8.194292 -30.928445 -2.484419 -3.347022 -144.657676 -46.106860 108.569181 0.000000 0.000000 0.000000 0.775611 -30.239003 -11.451824 34.432103 -1.228734 -3.706639 148.063953 42.751895 119.171280 0.000000 0.000000 0.000000 
0.029942 0.881256 -0.082276 -6.630736 -6.535127 11.811425 15.681686 2.670201 -38.578365 -7.829037 4.642194 48.536997 4.122755 7.230221 -5.878502 0.000000 0.000000 0.000000 -3.225323 4.082765 -40.043059 9.319692 -1.782886 48.362107 -4.877472 -12.429759 -1.122542 0.000000 0.000000 0.000000 5.799217 -0.847095 6.498871 0.326590 0.010279 -10.226014 -2.754331 10.447420 12.800998 11.459229 -4.945597 -17.956730 0.000000 0.000000 0.000000 1.624647 23.528799 -7.599459 -30.691202 -2.995242 -3.236469 -145.705304 -46.923814 111.355655 0.000000 0.000000 0.000000 0.781045 -30.240522 -11.461480 34.438005 -1.000686 -3.669840 148.850413 42.708372 120.722776 0.000000 0.000000 0.000000 
0.029532 0.881852 -0.083473 -6.550890 -6.580120 11.242294 15.320171 2.494428 -37.918006 -7.354703 4.348373 48.486756 4.198892 7.435781 -5.775369 0.000000 0.000000 0.000000 -2.913604 4.111324 -39.517662 8.864415 -1.503988 48.304849 -4.680186 -11.820031 -1.377790 0.000000 0.000000 0.000000 5.870949 -0.845497 6.547098 0.384963 -0.020345 -9.834054 -2.487899 10.615550 13.115447 11.262073 -4.855759 -17.806981 0.000000 0.000000 0.000000 1.860071 22.564048 -7.184628 -29.657843 -3.869078 -2.957561 -147.042132 -47.352537 114.090024 0.000000 0.000000 0.000000 0.420458 -29.682975 -11.141054 33.338488 -0.602784 -3.499152 150.553428 42.772537 124.363488 0.000000 0.000000 0.000000 
